<?xml version="1.0" encoding="UTF-8"?>
<svg width="512px" height="512px" viewBox="0 0 512 512" version="1.1" xmlns="http://www.w3.org/2000/svg" xmlns:xlink="http://www.w3.org/1999/xlink">
    <!-- Generator: Sketch 52.3 (67297) - http://www.bohemiancoding.com/sketch -->
    <title>Logos/ED-Logo-Color</title>
    <desc>Created with Sketch.</desc>
    <defs>
        <path d="M250.567063,237.614198 L250.5,238 L250.408352,237.472765 L238.060305,226.469068 L216,226.469068 L221.626058,221.128426 L236.786802,218.579483 L236.786802,212.874706 L226.482234,212.874706 L232.626125,207.485513 L237.837631,207 L241.109983,210.265074 L250.024444,235.264212 L244.57277,203.90175 L238,198.269179 L242.1277,148 L244.002817,158.252974 L244.944601,187.932867 L250.5,184.056689 L256.055399,187.932867 L256.997183,158.252974 L258.8723,148 L263,198.269179 L256.42723,203.90175 L250.663859,237.057348 L251,238 L250.567063,237.614198 Z M174.517232,301.996845 C176.91597,304.402933 178.475488,307.813536 178.475488,311.344856 C178.475488,312.466695 178.970028,328.508893 179,329 C159.731299,310.931802 138.708744,291.793154 133.869694,287.209808 C125.016794,278.331573 125.107677,275.756289 125.107677,269.025256 C124.981988,266.010739 124.986822,260.086906 125.020178,256 C126.103042,257.008879 173.313028,300.790166 174.517232,301.996845 Z M146.839823,235.51732 C150.656498,238.940518 245.873019,324.272684 246,324.388356 L225.603357,372 L186.740861,335.197591 C186.738447,335.193235 186.590222,335.025777 186.376333,334.775075 C186.006012,334.341912 185.299166,333.193425 184.9554,332.677017 C184.437819,331.898775 184.100812,330.429408 183.862783,329.712632 C183.770082,329.433859 183.232223,325.05383 183.232223,323.541389 L183.232223,312.227846 C183.232223,307.162499 182.052216,300.833962 177.666781,296.437961 C176.377174,295.144764 90.7093436,215.826063 90.7725927,215.855102 C71.6409329,196.67735 70.3735359,182.339409 72.425512,166.569851 C72.3762646,166.676327 92.4624554,185.28395 92.4624554,185.28395 L92.4624554,177.863067 L65.1900028,151.281855 C42.6718582,126.802573 37.5419179,113.856078 37.5419179,87.0357795 C37.5496429,87.2574428 61.0792911,109.056921 61.0792911,109.056921 L61.0792911,101.474873 L30.9244156,72.4258409 C16.2172991,57.8357456 -0.247757325,38.7993157 0.00282517124,0 C0.00282517124,0 88.8408382,81.1341135 105.223816,96.0426684 C105.285134,103.571963 105.907969,111.29001 107.298484,118.741868 C109.670569,131.453148 113.382473,141.939567 120.264076,149.149918 C120.223037,150.740764 120.659504,159.83719 120.465894,160.439262 C120.536386,165.748535 120.465894,169.533752 120.465894,171.086847 C120.465894,174.549248 120.739169,177.425064 121.43153,180.282489 C122.624573,184.481993 124.60123,188.04603 127.708163,190.930074 C129.725859,192.780334 146.005996,208.093981 148.891799,210.803791 C148.69674,211.044814 145.701821,214.406063 144.852061,215.688613 C142.675518,218.974845 141.618147,222.571309 141.752853,225.489231 C141.914114,228.98551 143.147231,232.204953 146.839823,235.51732 Z M126.000933,170.109134 C125.991261,168.624261 126.061382,164.867667 126.000933,159.489106 C126.099102,159.237122 126.216132,156.792585 126.310433,154 C130.740147,158.285664 154.463783,179.944728 154.463783,179.944728 C154.187651,179.66909 167.762598,189.679914 153.379567,206 C153.379567,206 134.319704,188.626117 132.231549,186.702927 C127.046461,181.527112 125.991261,176.865402 126.000933,170.109134 Z M125.890254,145.775647 C119.479201,139.494023 115.243231,129.348874 112.96653,117.138973 C111.030972,108.281019 110.883869,99.5346995 111.051295,91 L203.998265,177.647779 L203.998265,193.664902 C180.287674,215.102122 189.118659,234.436245 204.441992,235.972918 L226.136215,236.943652 L235.874494,250.473267 L249,318 C249,318 160.417714,240.997441 156.577082,237.550362 C146.999939,227.943971 146.738155,223.59605 150.046992,218.884589 C150.786375,217.768245 156.574179,210.536756 156.888707,210.151375 C166.71457,198.104072 166.980709,185.312701 157.181944,175.423341 C155.025732,173.260544 132.505025,152.256757 125.890254,145.775647 Z M179,329.000242 L179,328.999758 L179,329.000242 Z M228,383.67288 L250.5,329 L273,383.67288 L261.765047,395 L256.829215,363.487977 L250.5,353.957623 L244.170785,363.487977 L239.234953,395 L228,383.67288 Z M261.690668,417.783196 C262.713679,424.426104 261.401962,427.152645 254.680577,435.010877 C256.238703,436.535084 258.369322,438.459107 258.369322,440.383611 C258.369322,441.406485 258.369322,447.21945 258.369322,447.21945 C258.369322,448.876929 257.673379,456 250.5,456 C243.326621,456 242.630678,448.876929 242.630678,447.21945 C242.630678,447.21945 242.630678,441.406485 242.630678,440.383611 C242.630678,438.459107 244.761297,436.535084 246.319423,435.010877 C239.598038,427.152645 238.286321,424.426104 239.309332,417.783196 C240.260045,412.49081 248.040837,365.367882 248.040837,365.367882 L250.5,362 L252.959163,365.367882 C252.959163,365.367882 260.739955,412.49081 261.690668,417.783196 Z M251,243.881973 L269,237 L260.181208,248.429871 L251,296 L241.818792,248.429871 L233,237 L251,243.881973 Z M297.55531,235.972918 C312.878895,234.436245 321.710305,215.102122 297.998574,193.664902 L297.998574,177.647779 L390.950494,91 C391.117928,99.5342141 390.950494,108.281019 389.014842,117.138973 C386.737548,129.34936 382.5217,139.494023 376.109854,145.775647 C369.494765,152.256272 346.97346,173.260544 344.817628,175.423341 C335.018393,185.312701 335.284061,198.104557 345.110879,210.151375 C345.425907,210.536756 351.214956,217.768245 351.953891,218.884589 C355.263371,223.59605 355.002058,227.943971 345.424455,237.550362 C341.584122,240.997441 253,318 253,318 L266.130976,250.473267 L275.879884,236.943652 L297.55531,235.972918 Z M348.620358,206 C334.237286,189.679914 347.812755,179.66909 347.535655,179.944728 C347.535655,179.944728 371.259356,158.285664 375.689567,154 C375.784351,156.792585 375.900897,159.237122 375.999067,159.489106 C375.938618,164.867185 376.008739,168.623778 375.999067,170.109134 C376.008255,176.865885 374.953536,181.527112 369.768434,186.702927 C367.680756,188.6266 348.620358,206 348.620358,206 Z M286,226.469068 L263.940169,226.469068 L251,238 L260.890017,210.265074 L264.162369,207 L269.373875,207.485513 L275.517766,212.874706 L265.213198,212.874706 L265.213198,218.579483 L280.373942,221.128426 L286,226.469068 Z M327.482325,301.996845 C328.686539,300.790166 375.896948,257.008879 376.979822,256 C377.013178,260.086421 377.018012,266.010739 376.892322,269.025256 C376.892322,275.756289 376.983206,278.331573 368.130227,287.209808 C363.291617,291.793154 342.268874,310.931317 323,329 C323.029489,328.508893 323.524034,312.466695 323.524034,311.344856 C323.524034,307.813536 325.084049,304.402933 327.482325,301.996845 Z M323,329.000242 L323,328.999758 L323,329.000242 Z M396.809645,96.0427934 C413.197707,81.1337351 501.997204,-0.000483981765 501.997204,0 C502.24785,38.7993661 485.597069,57.8358209 470.886738,72.4259352 L440.482812,101.475005 L440.482812,109.057063 C440.482812,109.057063 464.259845,87.2575564 464.267572,87.0358927 C464.267572,113.856226 459.317444,126.802738 436.793155,151.282052 L409.574214,177.862815 L409.574214,185.284191 C409.574214,185.284191 429.648551,166.67606 429.599292,166.570068 C431.651784,182.339646 430.367648,196.677606 411.231178,215.855383 C411.294443,215.826344 325.639364,295.145148 324.34895,296.438347 C319.961929,300.834353 318.782109,307.162899 318.782109,312.228252 L318.782109,323.541326 C318.782109,325.053769 318.244114,329.433804 318.150907,329.712577 C317.913301,330.429354 317.609532,331.898723 317.091821,332.676966 C316.747968,333.193374 316.024042,334.341863 315.653628,334.775027 C315.439686,335.025729 315.283213,335.193187 315.280799,335.197543 L276.404185,372 L256,324.388294 C256.127496,324.272622 351.366023,238.940345 355.183175,235.517626 C358.876695,232.205255 360.110122,228.985808 360.271424,225.489524 C360.406164,222.571598 359.348527,218.97513 357.171436,215.688893 C356.321463,214.405858 353.325791,211.045088 353.130683,210.804065 C356.017211,208.094252 372.301442,192.780101 374.319645,190.930322 C377.427842,188.046275 379.404513,184.482233 380.597856,180.282723 C381.290391,177.425295 381.563734,174.549475 381.563734,171.08707 C381.563734,169.533972 381.493225,165.748751 381.563734,160.439471 C381.370076,159.837882 381.807136,150.74096 381.765603,149.150112 C388.64942,141.939752 392.362257,131.453319 394.734455,118.742022 C396.125803,111.290155 396.748312,103.572098 396.809645,96.0427934 Z" id="path-1"></path>
    </defs>
    <g id="Logos/ED-Logo-Color" stroke="none" stroke-width="1" fill="none" fill-rule="evenodd">
        <g id="elite-dangerous-clean" transform="translate(5.000000, 28.000000)">
            <g id="Colors/Orange">
                <mask id="mask-2" fill="white">
                    <use xlink:href="#path-1"></use>
                </mask>
                <use id="Mask" fill="#FD7022" xlink:href="#path-1"></use>
                <g id="Colors/Orange-1" mask="url(#mask-2)" fill="#FF7100">
                    <g transform="translate(-15.000000, -32.000000)" id="Rectangle">
                        <rect x="0" y="0" width="537" height="534"></rect>
                    </g>
                </g>
            </g>
        </g>
    </g>
</svg>